<svg width="63" height="62" viewBox="0 0 63 62" fill="none" xmlns="http://www.w3.org/2000/svg">
<path d="M19.79 0.0599976C28.65 0.0599976 37.52 0.0599976 46.38 0.0599976C46.38 4.55 46.38 9.04001 46.38 13.54C46.38 15.03 47.06 15.71 48.54 15.71C52.81 15.71 57.08 15.71 61.35 15.71C61.56 15.71 61.77 15.71 62.02 15.71C62.02 15.99 62.02 16.19 62.02 16.39C62.02 29.57 62.02 42.74 62.02 55.92C62.02 59.4 59.73 61.68 56.26 61.68C47.2 61.68 38.13 61.68 29.07 61.68C28.88 61.68 28.68 61.68 28.3 61.68C30.78 59.89 32.67 57.8 34.11 55.31C35.55 52.82 36.38 50.12 36.68 47.24C37.52 47.24 38.3 47.24 39.08 47.24C43.25 47.24 47.42 47.24 51.59 47.24C52.43 47.24 53.08 46.93 53.44 46.15C54 44.92 53.08 43.63 51.64 43.63C46.89 43.62 42.13 43.63 37.38 43.63C37.15 43.63 36.91 43.63 36.66 43.63C36.43 41.06 35.71 38.71 34.6 36.41C37.55 36.41 40.4 36.41 43.24 36.41C46.05 36.41 48.86 36.41 51.66 36.41C52.48 36.41 53.1 36.06 53.44 35.31C53.99 34.07 53.07 32.8 51.62 32.8C45.42 32.8 39.23 32.79 33.03 32.81C32.44 32.81 32.05 32.64 31.65 32.2C28.18 28.38 23.87 26.15 18.71 25.7C17.53 25.59 16.32 25.68 15.12 25.68C15.1 25.51 15.08 25.44 15.08 25.36C15.08 18.68 15.06 12 15.09 5.32999C15.1 3.64999 15.8 2.22001 17.18 1.26001C17.97 0.71001 18.92 0.449998 19.79 0.0599976ZM38.5 25.57C42.87 25.57 47.24 25.57 51.61 25.57C52.42 25.57 53.06 25.28 53.43 24.53C54.04 23.28 53.13 21.96 51.66 21.95C45.53 21.94 39.4 21.95 33.26 21.95C30.67 21.95 28.09 21.95 25.5 21.95C24.71 21.95 24.09 22.24 23.73 22.96C23.1 24.2 24 25.56 25.46 25.56C29.8 25.58 34.15 25.57 38.5 25.57Z" fill="#EF7B48"/>
<path d="M16.92 61.67C7.96002 61.68 0.650014 54.37 0.660014 45.41C0.670014 36.47 7.95002 29.19 16.89 29.18C25.85 29.17 33.16 36.48 33.15 45.44C33.14 54.38 25.86 61.67 16.92 61.67ZM14.37 48.06C13.61 47.3 12.92 46.58 12.21 45.88C11.34 45.02 10.25 44.96 9.49 45.72C8.73 46.48 8.80001 47.57 9.66001 48.44C10.7 49.49 11.76 50.54 12.8 51.59C13.91 52.7 14.84 52.7 15.95 51.59C18.59 48.96 21.22 46.32 23.86 43.68C24 43.54 24.14 43.39 24.26 43.23C25.02 42.14 24.45 40.67 23.15 40.41C22.44 40.27 21.87 40.55 21.37 41.05C19.06 43.37 16.75 45.68 14.37 48.06Z" fill="#EF7B48"/>
<path d="M50.02 12.05C50.02 8.42999 50.02 4.86 50.02 1.37C53.57 4.92 57.16 8.50999 60.71 12.05C57.25 12.05 53.66 12.05 50.02 12.05Z" fill="#EF7B48"/>
</svg>
