<svg width="65" height="62" viewBox="0 0 65 62" fill="none" xmlns="http://www.w3.org/2000/svg">
<path d="M33.36 61.2299C28.51 60.9699 24.35 60.07 20.6 57.7399C19.15 56.8399 18.57 55.5599 18.84 53.8499C19.9 47.2499 25.62 42.1199 32.3 41.7999C39.38 41.4599 46.17 47.28 46.88 54.32C47.03 55.77 46.3799 56.8899 45.16 57.6799C42.9799 59.0999 40.58 59.9899 38.05 60.4999C36.34 60.8499 34.6 61.0399 33.36 61.2299Z" fill="#EF7B48"/>
<path d="M48.05 56.3C48.62 52.54 47.04 49.47 45.03 46.48C46.63 44.43 48.7 43.06 51.23 42.45C57.45 40.94 63.82 45.34 64.7 51.74C64.86 52.93 64.4 53.86 63.39 54.52C61.49 55.77 59.37 56.44 57.17 56.89C54.18 57.5 51.23 57.27 48.31 56.4C48.22 56.37 48.12 56.33 48.05 56.3Z" fill="#EF7B48"/>
<path d="M20.5 46.35C19.7 48 18.84 49.52 18.2 51.13C17.56 52.75 17.12 54.4599 17.7 56.2899C15.99 56.8299 14.29 57.1899 12.54 57.2299C8.99 57.2999 5.65003 56.52 2.57003 54.71C1.14003 53.87 0.739996 52.94 1.04 51.32C2.07 45.72 7.22004 41.75 12.9 42.19C15.8 42.4 19.09 44.25 20.5 46.35Z" fill="#EF7B48"/>
<path d="M32.8 39.52C29.17 39.52 26.2 36.55 26.19 32.93C26.18 29.28 29.2 26.24 32.81 26.27C36.5 26.3 39.44 29.24 39.45 32.91C39.47 36.55 36.48 39.52 32.8 39.52Z" fill="#EF7B48"/>
<path d="M27.29 6.80997C28.15 6.80997 29.02 6.78998 29.88 6.81998C30.36 6.83998 30.59 6.66997 30.74 6.19997C31.23 4.58997 31.75 2.99997 32.3 1.40997C32.4 1.10997 32.66 0.869976 32.85 0.599976C33.02 0.859976 33.27 1.08996 33.36 1.36996C33.9 2.95996 34.43 4.55997 34.92 6.15997C35.07 6.65997 35.32 6.81997 35.82 6.80997C37.57 6.77997 39.32 6.78997 41.07 6.80997C41.29 6.80997 41.51 6.98997 41.74 7.07997C41.61 7.28997 41.52 7.55997 41.34 7.68997C40.01 8.67997 38.68 9.67998 37.3 10.6C36.67 11.02 36.6 11.43 36.84 12.09C37.37 13.59 37.86 15.11 38.32 16.63C38.41 16.91 38.33 17.23 38.32 17.54C38.03 17.44 37.69 17.39 37.45 17.22C36.11 16.27 34.78 15.31 33.48 14.32C33.02 13.97 32.69 13.93 32.2 14.3C30.87 15.33 29.5 16.31 28.12 17.28C27.9 17.43 27.58 17.44 27.3 17.52C27.3 17.25 27.22 16.96 27.3 16.72C27.8 15.12 28.3 13.51 28.87 11.93C29.09 11.33 28.93 11.01 28.44 10.67C27.06 9.70997 25.7 8.71998 24.35 7.70998C24.15 7.55998 24.07 7.26997 23.93 7.04997C24.16 6.96997 24.39 6.81997 24.62 6.80997C25.51 6.77997 26.4 6.79997 27.29 6.80997C27.29 6.79997 27.29 6.79997 27.29 6.80997Z" fill="#EF7B48"/>
<path d="M6.34998 12.12C7.20998 12.12 8.08 12.09 8.94 12.13C9.45 12.15 9.69003 11.96 9.84003 11.48C10.33 9.86997 10.85 8.27996 11.39 6.67996C11.49 6.39996 11.73 6.15996 11.9 5.89996C12.09 6.16996 12.36 6.40998 12.46 6.70998C12.99 8.27998 13.5 9.85997 13.98 11.45C14.14 11.96 14.4 12.14 14.93 12.13C16.66 12.1 18.39 12.1 20.11 12.12C20.34 12.12 20.57 12.27 20.81 12.36C20.67 12.59 20.59 12.88 20.39 13.02C19.01 14.05 17.61 15.07 16.19 16.06C15.75 16.37 15.66 16.67 15.83 17.17C16.39 18.78 16.91 20.4 17.41 22.03C17.49 22.28 17.42 22.57 17.42 22.83C17.15 22.76 16.82 22.75 16.6 22.6C15.24 21.64 13.89 20.67 12.58 19.66C12.1 19.29 11.75 19.26 11.25 19.64C9.95 20.64 8.62003 21.59 7.28003 22.54C7.04003 22.71 6.69997 22.75 6.40997 22.85C6.40997 22.55 6.31997 22.22 6.40997 21.94C6.90997 20.33 7.41998 18.73 7.97998 17.15C8.15998 16.63 8.03999 16.35 7.60999 16.04C6.18999 15.05 4.79997 14.03 3.40997 13C3.22997 12.86 3.14001 12.6 3.01001 12.39C3.23001 12.29 3.44998 12.12 3.66998 12.12C4.57998 12.1 5.45998 12.12 6.34998 12.12Z" fill="#EF7B48"/>
<path d="M48.17 12.12C49.06 12.12 49.94 12.1 50.83 12.13C51.29 12.14 51.5 11.96 51.64 11.53C52.16 9.85997 52.7 8.19996 53.26 6.53996C53.34 6.29996 53.58 6.10996 53.74 5.89996C53.91 6.10996 54.15 6.28997 54.23 6.52997C54.78 8.13997 55.32 9.75997 55.8 11.39C55.97 11.97 56.26 12.14 56.84 12.13C58.5 12.09 60.16 12.1 61.82 12.12C62.09 12.12 62.36 12.29 62.63 12.38C62.47 12.62 62.36 12.92 62.15 13.08C60.77 14.11 59.37 15.13 57.95 16.12C57.58 16.38 57.49 16.64 57.64 17.07C58.21 18.74 58.76 20.43 59.28 22.12C59.35 22.34 59.26 22.6 59.25 22.85C59.01 22.8 58.73 22.81 58.54 22.68C57.11 21.67 55.7 20.64 54.3 19.59C53.9 19.29 53.6 19.28 53.19 19.59C51.81 20.63 50.41 21.64 49 22.64C48.8 22.78 48.49 22.79 48.24 22.86C48.23 22.59 48.15 22.3 48.23 22.06C48.74 20.43 49.25 18.81 49.82 17.21C50.01 16.67 49.89 16.37 49.43 16.05C48.03 15.08 46.65 14.07 45.28 13.05C45.08 12.9 44.98 12.62 44.84 12.39C45.09 12.3 45.34 12.14 45.59 12.13C46.44 12.1 47.31 12.12 48.17 12.12Z" fill="#EF7B48"/>
<path d="M6.75001 35.3199C6.77001 32.4699 9.05998 30.1899 11.91 30.1899C14.79 30.1999 17.1 32.4899 17.11 35.3699C17.12 38.1999 14.74 40.5699 11.89 40.5499C9.03002 40.5299 6.73001 38.1999 6.75001 35.3199Z" fill="#EF7B48"/>
<path d="M58.91 35.4C58.9 38.23 56.59 40.54 53.75 40.55C50.91 40.56 48.55 38.2 48.55 35.36C48.55 32.5 50.89 30.18 53.76 30.2C56.65 30.21 58.91 32.5 58.91 35.4Z" fill="#EF7B48"/>
</svg>
