<svg width="60" height="60" viewBox="0 0 60 60" fill="none" xmlns="http://www.w3.org/2000/svg">
<path d="M59.37 31.82C59.3 32.33 59.24 32.84 59.16 33.35C58.9 34.83 57.57 35.85 56.09 35.73C54.58 35.6 53.4399 34.35 53.4699 32.82C53.4899 31.94 53.6 31.06 53.6 30.17C53.7 18.71 45.8699 8.98999 34.66 6.60999C21.8099 3.88999 9.01001 12.43 6.53001 25.37C3.99001 38.62 12.91 51.34 26.19 53.35C31.95 54.22 37.35 53.11 42.33 50.08C43.01 49.67 43.7 49.38 44.51 49.5C45.78 49.7 46.69 50.56 46.95 51.79C47.2 52.98 46.72 54.13 45.64 54.81C43.14 56.39 40.46 57.56 37.61 58.34C21.05 62.85 4.14999 52.34 0.889991 35.49C-2.23001 19.43 8.13999 4.06001 24.26 0.890015C25.5 0.650015 26.76 0.519987 28.01 0.329987C29.32 0.329987 30.62 0.329987 31.93 0.329987C32.95 0.479987 33.98 0.599999 34.99 0.779999C47.15 2.88 56.86 12.59 58.92 24.71C59.1 25.77 59.23 26.83 59.38 27.89C59.37 29.21 59.37 30.51 59.37 31.82Z" fill="#EF7B48"/>
<path d="M25.59 33.84C25.73 33.62 25.83 33.4 25.99 33.24C30.39 28.83 34.79 24.43 39.19 20.03C40.43 18.79 42.08 18.67 43.28 19.7C44.46 20.72 44.63 22.47 43.66 23.69C43.58 23.8 43.48 23.89 43.39 23.99C38.11 29.28 32.83 34.57 27.54 39.84C26.34 41.03 24.61 41.03 23.41 39.84C21.02 37.48 18.64 35.1 16.28 32.71C15.11 31.53 15.1 29.77 16.22 28.62C17.36 27.46 19.14 27.44 20.35 28.63C21.92 30.16 23.45 31.72 25 33.27C25.14 33.42 25.29 33.56 25.59 33.84Z" fill="#EF7B48"/>
</svg>
